<?xml version="1.0" encoding="utf-8"?>
<!-- Generator: Adobe Illustrator 17.1.0, SVG Export Plug-In . SVG Version: 6.00 Build 0)  -->
<!DOCTYPE svg PUBLIC "-//W3C//DTD SVG 1.1//EN" "http://www.w3.org/Graphics/SVG/1.1/DTD/svg11.dtd">
<svg version="1.1" id="Layer_1" xmlns="http://www.w3.org/2000/svg" xmlns:xlink="http://www.w3.org/1999/xlink" x="0px" y="0px"
	 viewBox="0 0 225 186" enable-background="new 0 0 225 186" xml:space="preserve">
<path fill="#BE1E2D" d="M181.8,178.9H43.2c-19.2,0-34.8-15.6-34.8-34.8V41.9C8.4,22.7,24,7.1,43.2,7.1h138.6
	c19.2,0,34.8,15.6,34.8,34.8v102.2C216.6,163.3,201,178.9,181.8,178.9z"/>
<g>
	<g>
		<path fill="#BE1E2D" d="M194.5,116.8c0,24.1-18.1,38.4-48.4,38.4c-12.6,0-25.3-4-34.3-10.8c-8.8,6.8-21,10.8-32.6,10.8
			c-11.7,0-23.5-3.6-32.4-9.9c-7.5-5.3-16.3-15-16.3-31.5V72.1c0-16.4,8.9-26.2,16.3-31.5c8.8-6.3,20.6-9.9,32.4-9.9
			c12.7,0,24.4,3.5,32.9,10c7.8-5.9,18.7-9.5,30.9-10c23.3,0,48.4,10.9,48.4,34.9c0,4.8-1.4,6.2-6.3,6.2h-17.4c-3.9,0-4.9-2.9-5.7-5
			l-0.2-0.6c-0.7-1.6-1.4-2.8-3.5-4.9c-3.2-3-9.5-4.4-14.3-4.4c-5,0-14.4,1.9-14.4,9.1c0,7.5,15.8,11.8,25.2,14.3
			c3,0.8,5.5,1.5,7.2,2.1l0.9,0.3C175.5,86.6,194.5,92.4,194.5,116.8z"/>
	</g>
	<g>
		<g>
			<path fill="#FFFFFF" d="M161.7,83.6c-7.1-2.8-33.1-6.7-33.1-17.6c0-7.9,9.8-10.3,15.6-10.3c5.3,0,11.8,1.6,15.1,4.8
				c2.1,2.1,3,3.5,3.7,5.3c0.8,2.3,1.4,4.9,4.8,4.9h17.4c4.1,0,5.1-0.7,5.1-5c0-23.3-24.6-33.7-47.2-33.7
				c-11.6,0.5-22.9,3.8-30.9,10.3c-8.8-6.9-20.8-10.3-33-10.3c-21.1,0-47.5,12.3-47.5,40.1v41.8c0,27.8,26.4,40.1,47.5,40.1
				c11.6,0,23.7-4,32.6-11.1c9.3,7.4,22.3,11.1,34.3,11.1c27.4,0,47.2-12.1,47.2-37.3C193.3,92.6,174.5,87.5,161.7,83.6z M120,110.7
				h-17.4c-3.9,0-4.3,2.8-4.9,6.3c-1.4,8.6-9.1,12-18.6,12c-11.8,0-19.7-6.3-19.7-17.6v-37c0-11.1,7.9-17.8,19.7-17.7
				C98.4,56.9,100,69.8,100,69.8c1.2,20.5,17.1,27.3,34.4,32.8c15,4.8,30.8,4.9,30.8,14.8c0,10-7.7,12-17.4,12
				c-6.5,0-13.8-1.6-17.4-5.8c-2.3-2.7-3.2-5-3.4-7.3C127.1,116.4,127.9,110.2,120,110.7z"/>
			<path fill="#BE1E2D" d="M146.3,104.5c-3.8-0.9-7.7-1.8-11.6-3c-17-5.4-32.4-11.9-33.6-31.8c0-0.1-2-14-22.1-14.1
				c-12.6,0-20.7,7.4-20.7,18.9v37c0,11.6,8,18.8,20.9,18.8c11.4,0,18.4-4.6,19.8-13.2c0.6-3.9,1-5.2,3.7-5.2h17.5
				c2.3-0.1,4,0.3,4.9,1.4c1.1,1.2,0.9,3,0.9,3.3c0.2,2.8,1.4,5.3,3.6,7.9c4.7,5.6,14.3,6.2,18.3,6.2c8.6,0,18.5-1.5,18.5-13.2
				C166.4,109.2,157.1,107.1,146.3,104.5z M147.9,128.3c-7.5,0-13.6-2-16.5-5.4c-1.9-2.2-2.9-4.3-3.1-6.4c0-0.1,0.3-2.8-1.5-4.8
				c-1.3-1.5-3.2-2.2-5.8-2.2c-0.3,0-0.6,0-0.9,0h-17.4c-4.8,0-5.4,3.6-6,7.3c-1.6,9.6-11.6,11.1-17.4,11.1
				c-11.6,0-18.5-6.2-18.5-16.5v-37c0-10.2,7-16.6,18.5-16.6c17.9,0.1,19.6,11.6,19.7,12c1.3,21.3,18.1,28.4,35.2,33.8
				c4,1.2,7.9,2.2,11.8,3.1c10.2,2.4,18.3,4.3,18.3,10.7C164.1,125.2,159.4,128.3,147.9,128.3z M146.3,104.5
				c-3.8-0.9-7.7-1.8-11.6-3c-17-5.4-32.4-11.9-33.6-31.8c0-0.1-2-14-22.1-14.1c-12.6,0-20.7,7.4-20.7,18.9v37
				c0,11.6,8,18.8,20.9,18.8c11.4,0,18.4-4.6,19.8-13.2c0.6-3.9,1-5.2,3.7-5.2h17.5c2.3-0.1,4,0.3,4.9,1.4c1.1,1.2,0.9,3,0.9,3.3
				c0.2,2.8,1.4,5.3,3.6,7.9c4.7,5.6,14.3,6.2,18.3,6.2c8.6,0,18.5-1.5,18.5-13.2C166.4,109.2,157.1,107.1,146.3,104.5z
				 M147.9,128.3c-7.5,0-13.6-2-16.5-5.4c-1.9-2.2-2.9-4.3-3.1-6.4c0-0.1,0.3-2.8-1.5-4.8c-1.3-1.5-3.2-2.2-5.8-2.2
				c-0.3,0-0.6,0-0.9,0h-17.4c-4.8,0-5.4,3.6-6,7.3c-1.6,9.6-11.6,11.1-17.4,11.1c-11.6,0-18.5-6.2-18.5-16.5v-37
				c0-10.2,7-16.6,18.5-16.6c17.9,0.1,19.6,11.6,19.7,12c1.3,21.3,18.1,28.4,35.2,33.8c4,1.2,7.9,2.2,11.8,3.1
				c10.2,2.4,18.3,4.3,18.3,10.7C164.1,125.2,159.4,128.3,147.9,128.3z M163,82.7l-0.9-0.3c-1.6-0.7-4.2-1.3-7.2-2.1
				c-9.4-2.5-25.2-6.8-25.2-14.3c0-7.2,9.4-9.1,14.4-9.1c4.8,0,11.1,1.4,14.3,4.4c2,2.1,2.8,3.3,3.5,4.9l0.2,0.6
				c0.7,2.1,1.8,5,5.7,5h17.4c4.9,0,6.3-1.4,6.3-6.2c0-24-25-34.9-48.4-34.9c-12.2,0.5-23.1,4-30.9,10c-8.5-6.4-20.2-10-32.9-10
				c-11.7,0-23.5,3.6-32.4,9.9c-7.5,5.3-16.3,15-16.3,31.5v41.8c0,16.4,8.9,26.2,16.3,31.5c8.8,6.3,20.6,9.9,32.4,9.9
				c11.6,0,23.8-4,32.6-10.8c9,6.8,21.7,10.8,34.3,10.8c30.3,0,48.4-14.4,48.4-38.4C194.5,92.4,175.5,86.6,163,82.7z M146.1,152.9
				c-12.4,0-24.9-4.1-33.5-10.9l-0.7-0.6l-0.7,0.6c-8.5,6.8-20.4,10.9-31.8,10.9c-34,0-46.4-23.3-46.4-39V72.1
				c0-15.7,12.3-39,46.4-39c12.6,0,24,3.6,32.2,10l0.7,0.6l0.7-0.6c7.5-6,18.2-9.5,30.2-10c22.2,0,46,10.2,46,32.6
				c0,3.6-0.5,3.9-4,3.9h-17.4c-2.1,0-2.7-1.2-3.5-3.5l-0.2-0.7c-0.8-1.8-1.7-3.4-4-5.7c-4-3.7-11.1-5.1-15.9-5.1
				c-5.8,0-16.8,2.4-16.8,11.4c0,9.3,16.2,13.7,27,16.6c2.9,0.8,5.4,1.4,7,2.1l1,0.3c12.6,3.9,29.9,9.1,29.9,31.8
				C192.1,139.4,174.9,152.9,146.1,152.9z M146.3,104.5c-3.8-0.9-7.7-1.8-11.6-3c-17-5.4-32.4-11.9-33.6-31.8c0-0.1-2-14-22.1-14.1
				c-12.6,0-20.7,7.4-20.7,18.9v37c0,11.6,8,18.8,20.9,18.8c11.4,0,18.4-4.6,19.8-13.2c0.6-3.9,1-5.2,3.7-5.2h17.5
				c2.3-0.1,4,0.3,4.9,1.4c1.1,1.2,0.9,3,0.9,3.3c0.2,2.8,1.4,5.3,3.6,7.9c4.7,5.6,14.3,6.2,18.3,6.2c8.6,0,18.5-1.5,18.5-13.2
				C166.4,109.2,157.1,107.1,146.3,104.5z M147.9,128.3c-7.5,0-13.6-2-16.5-5.4c-1.9-2.2-2.9-4.3-3.1-6.4c0-0.1,0.3-2.8-1.5-4.8
				c-1.3-1.5-3.2-2.2-5.8-2.2c-0.3,0-0.6,0-0.9,0h-17.4c-4.8,0-5.4,3.6-6,7.3c-1.6,9.6-11.6,11.1-17.4,11.1
				c-11.6,0-18.5-6.2-18.5-16.5v-37c0-10.2,7-16.6,18.5-16.6c17.9,0.1,19.6,11.6,19.7,12c1.3,21.3,18.1,28.4,35.2,33.8
				c4,1.2,7.9,2.2,11.8,3.1c10.2,2.4,18.3,4.3,18.3,10.7C164.1,125.2,159.4,128.3,147.9,128.3z"/>
		</g>
	</g>
</g>
</svg>
