<?xml version="1.0" encoding="utf-8"?>
<!-- Generator: Adobe Illustrator 17.0.0, SVG Export Plug-In . SVG Version: 6.00 Build 0)  -->
<!DOCTYPE svg PUBLIC "-//W3C//DTD SVG 1.1//EN" "http://www.w3.org/Graphics/SVG/1.1/DTD/svg11.dtd">
<svg version="1.1" id="Layer_1" xmlns="http://www.w3.org/2000/svg" xmlns:xlink="http://www.w3.org/1999/xlink" x="0px" y="0px"
	 width="327.471px" height="328.667px" viewBox="0 0 327.471 328.667" enable-background="new 0 0 327.471 328.667"
	 xml:space="preserve">
<rect x="5.586" y="5.607" fill="#262262" width="283.508" height="283.508"/>
<g>
	<path fill="#1C75BC" d="M103.927,311.333c11.857-0.337,20.412-3.736,25.643-11.216c5.231-7.479,9.001-21.227,11.31-41.228
		l2.444-21.449c-18.642,12.946-37,19.416-55.063,19.416c-17.08,0-30.834-6.308-41.269-18.931S31.34,208.639,31.34,187.931
		c0-30.598,9.661-56.174,28.976-76.714s43.416-30.807,72.311-30.807c14.609,0,29.756,2.76,45.443,8.294l-8.294,18.204l-2.356,5.318
		c-1.979,4.214-4.416,6.315-7.304,6.315c-0.579,0-1.447-0.121-2.599-0.364c1.151-2.552,1.73-4.645,1.73-6.288
		c0-5.507-3.696-10.314-11.095-14.42c-7.399-4.113-16.016-6.167-25.845-6.167c-20.58,0-37.068,8.058-49.462,24.169
		c-12.401,16.11-18.594,37.478-18.594,64.098c0,19.53,4.336,34.779,13.013,45.739s20.749,16.44,36.206,16.44
		c14.212,0,27.972-5.601,41.282-16.804l5.083-44.614h-21.052c-14.279,0-25.71,1.407-34.294,4.214
		c4.127-8.422,8.025-13.707,11.701-15.854c3.676-2.141,10.59-3.218,20.742-3.218l12.502-0.121h32.941l-1.239,5.076l-1.979,7.803
		c-1.077,4.618-1.818,8.624-2.228,12.01l-5.514,49.771c-1.898,16.757-4.336,29.285-7.304,37.579
		c-2.969,8.301-7.836,15.955-14.602,22.97c-13.532,14.198-29.701,20.87-48.506,21.301"/>
</g>
<g>
	<path fill="#27AAE1" d="M228.403,263.263h-25.481V58.186H31.34V34.522h289.35v23.664h-92.288V263.263z"/>
</g>
<text transform="matrix(-1.346898e-10 -1 1 -1.346898e-10 270.8436 265.1821)" opacity="0.7" fill="#BCBEC0" font-family="'Futura-Book'" font-size="48.2234">.com</text>
</svg>
