<?xml version="1.0" encoding="utf-8"?>
<!-- Generator: Adobe Illustrator 17.1.0, SVG Export Plug-In . SVG Version: 6.00 Build 0)  -->
<!DOCTYPE svg PUBLIC "-//W3C//DTD SVG 1.1//EN" "http://www.w3.org/Graphics/SVG/1.1/DTD/svg11.dtd">
<svg version="1.1" id="Layer_1" xmlns="http://www.w3.org/2000/svg" xmlns:xlink="http://www.w3.org/1999/xlink" x="0px" y="0px"
	 viewBox="12 152 588 488" enable-background="new 12 152 588 488" xml:space="preserve">
<path fill="#BE1E2D" d="M589.2,257v278c0,52.2-42.4,94.7-94.7,94.7h-377c-52.2,0-94.7-42.4-94.7-94.7V257
	c0-52.2,42.4-94.7,94.7-94.7h377C546.7,162.3,589.2,204.8,589.2,257z"/>
<path fill="#FFFFFF" d="M439.8,370.4c-19.3-7.6-90-18.2-90-47.9c0-21.5,26.7-28,42.4-28c14.4,0,32.1,4.4,41.1,13.1
	c5.7,5.7,8.2,9.5,10.1,14.4c2.2,6.3,3.8,13.3,13.1,13.3h47.3c11.2,0,13.9-1.9,13.9-13.6c0-63.4-66.9-91.7-128.4-91.7
	c-31.6,1.4-62.3,10.3-84,28c-23.9-18.8-56.6-28-89.8-28c-57.4,0-129.2,33.5-129.2,109.1v113.7c0,75.6,71.8,109.1,129.2,109.1
	c31.6,0,64.5-10.9,88.7-30.2c25.3,20.1,60.7,30.2,93.3,30.2c74.5,0,128.4-32.9,128.4-101.5C525.8,394.9,474.6,381,439.8,370.4
	L439.8,370.4z M326.4,444.1h-47.3c-10.6,0-11.7,7.6-13.3,17.1c-3.8,23.4-24.8,32.6-50.6,32.6c-32.1,0-53.6-17.1-53.6-47.9V345.4
	c0-30.2,21.5-48.4,53.6-48.1c52.5,0.5,56.8,35.6,56.8,35.6c3.3,55.8,46.5,74.3,93.6,89.2c40.8,13.1,83.8,13.3,83.8,40.3
	c0,27.2-20.9,32.6-47.3,32.6c-17.7,0-37.5-4.4-47.3-15.8c-6.3-7.3-8.7-13.6-9.2-19.9C345.7,459.6,347.9,442.8,326.4,444.1
	L326.4,444.1z"/>
<path fill="#BE1E2D" d="M397.9,427.3c-10.3-2.4-20.9-4.9-31.6-8.2c-46.2-14.7-88.1-32.4-91.4-86.5c0-0.3-5.4-38.1-60.1-38.4
	c-34.3,0-56.3,20.1-56.3,51.4v100.6c0,31.6,21.8,51.1,56.8,51.1c31,0,50-12.5,53.9-35.9c1.6-10.6,2.7-14.1,10.1-14.1h47.6
	c6.3-0.3,10.9,0.8,13.3,3.8c3,3.3,2.4,8.2,2.4,9c0.5,7.6,3.8,14.4,9.8,21.5c12.8,15.2,38.9,16.9,49.8,16.9
	c23.4,0,50.3-4.1,50.3-35.9C452.6,440.1,427.3,434.4,397.9,427.3L397.9,427.3z M402.3,492c-20.4,0-37-5.4-44.9-14.7
	c-5.2-6-7.9-11.7-8.4-17.4c0-0.3,0.8-7.6-4.1-13.1c-3.5-4.1-8.7-6-15.8-6h-49.8c-13.1,0-14.7,9.8-16.3,19.9
	c-4.4,26.1-31.6,30.2-47.3,30.2c-31.6,0-50.3-16.9-50.3-44.9V345.4c0-27.7,19-45.2,50.3-45.2c48.7,0.3,53.3,31.6,53.6,32.6
	c3.5,57.9,49.2,77.2,95.7,91.9c10.9,3.3,21.5,6,32.1,8.4c27.7,6.5,49.8,11.7,49.8,29.1C446.4,483.6,433.6,492,402.3,492z
	 M397.9,427.3c-10.3-2.4-20.9-4.9-31.6-8.2c-46.2-14.7-88.1-32.4-91.4-86.5c0-0.3-5.4-38.1-60.1-38.4c-34.3,0-56.3,20.1-56.3,51.4
	v100.6c0,31.6,21.8,51.1,56.8,51.1c31,0,50-12.5,53.9-35.9c1.6-10.6,2.7-14.1,10.1-14.1h47.6c6.3-0.3,10.9,0.8,13.3,3.8
	c3,3.3,2.4,8.2,2.4,9c0.5,7.6,3.8,14.4,9.8,21.5c12.8,15.2,38.9,16.9,49.8,16.9c23.4,0,50.3-4.1,50.3-35.9
	C452.6,440.1,427.3,434.4,397.9,427.3L397.9,427.3z M402.3,492c-20.4,0-37-5.4-44.9-14.7c-5.2-6-7.9-11.7-8.4-17.4
	c0-0.3,0.8-7.6-4.1-13.1c-3.5-4.1-8.7-6-15.8-6h-49.8c-13.1,0-14.7,9.8-16.3,19.9c-4.4,26.1-31.6,30.2-47.3,30.2
	c-31.6,0-50.3-16.9-50.3-44.9V345.4c0-27.7,19-45.2,50.3-45.2c48.7,0.3,53.3,31.6,53.6,32.6c3.5,57.9,49.2,77.2,95.7,91.9
	c10.9,3.3,21.5,6,32.1,8.4c27.7,6.5,49.8,11.7,49.8,29.1C446.4,483.6,433.6,492,402.3,492z M443.4,368l-2.4-0.8
	c-4.4-1.9-11.4-3.5-19.6-5.7c-25.6-6.8-68.5-18.5-68.5-38.9c0-19.6,25.6-24.8,39.2-24.8c13.1,0,30.2,3.8,38.9,12
	c5.4,5.7,7.6,9,9.5,13.3l0.5,1.6c1.9,5.7,4.9,13.6,15.5,13.6h47.3c13.3,0,17.1-3.8,17.1-16.9c0-65.3-68-94.9-131.6-94.9
	c-33.2,1.4-62.8,10.9-84,27.2c-23.1-17.4-54.9-27.2-89.5-27.2c-31.8,0-63.9,9.8-88.1,26.9c-20.4,14.4-44.3,40.8-44.3,85.7v113.7
	c0,44.6,24.2,71.3,44.3,85.7c23.9,17.1,56,26.9,88.1,26.9c31.6,0,64.7-10.9,88.7-29.4c24.5,18.5,59,29.4,93.3,29.4
	c82.4,0,131.6-39.2,131.6-104.4C529,394.4,477.4,378.6,443.4,368L443.4,368z M397.4,558.9c-33.7,0-67.7-11.2-91.1-29.6l-1.9-1.6
	l-1.9,1.6c-23.1,18.5-55.5,29.6-86.5,29.6c-92.5,0-126.2-63.4-126.2-106.1V339.2c0-42.7,33.5-106.1,126.2-106.1
	c34.3,0,65.3,9.8,87.6,27.2l1.9,1.6l1.9-1.6c20.4-16.3,49.5-25.8,82.1-27.2c60.4,0,125.1,27.7,125.1,88.7c0,9.8-1.4,10.6-10.9,10.6
	h-47.3c-5.7,0-7.3-3.3-9.5-9.5l-0.5-1.9c-2.2-4.9-4.6-9.2-10.9-15.5c-10.9-10.1-30.2-13.9-43.2-13.9c-15.8,0-45.7,6.5-45.7,31
	c0,25.3,44.1,37.3,73.4,45.2c7.9,2.2,14.7,3.8,19,5.7l2.7,0.8c34.3,10.6,81.3,24.8,81.3,86.5C522.5,522.2,475.7,558.9,397.4,558.9z
	 M397.9,427.3c-10.3-2.4-20.9-4.9-31.6-8.2c-46.2-14.7-88.1-32.4-91.4-86.5c0-0.3-5.4-38.1-60.1-38.4c-34.3,0-56.3,20.1-56.3,51.4
	v100.6c0,31.6,21.8,51.1,56.8,51.1c31,0,50-12.5,53.9-35.9c1.6-10.6,2.7-14.1,10.1-14.1h47.6c6.3-0.3,10.9,0.8,13.3,3.8
	c3,3.3,2.4,8.2,2.4,9c0.5,7.6,3.8,14.4,9.8,21.5c12.8,15.2,38.9,16.9,49.8,16.9c23.4,0,50.3-4.1,50.3-35.9
	C452.6,440.1,427.3,434.4,397.9,427.3L397.9,427.3z M402.3,492c-20.4,0-37-5.4-44.9-14.7c-5.2-6-7.9-11.7-8.4-17.4
	c0-0.3,0.8-7.6-4.1-13.1c-3.5-4.1-8.7-6-15.8-6h-49.8c-13.1,0-14.7,9.8-16.3,19.9c-4.4,26.1-31.6,30.2-47.3,30.2
	c-31.6,0-50.3-16.9-50.3-44.9V345.4c0-27.7,19-45.2,50.3-45.2c48.7,0.3,53.3,31.6,53.6,32.6c3.5,57.9,49.2,77.2,95.7,91.9
	c10.9,3.3,21.5,6,32.1,8.4c27.7,6.5,49.8,11.7,49.8,29.1C446.4,483.6,433.6,492,402.3,492z"/>
</svg>
