<?xml version="1.0" encoding="utf-8"?>
<!-- Generator: Adobe Illustrator 17.1.0, SVG Export Plug-In . SVG Version: 6.00 Build 0)  -->
<!DOCTYPE svg PUBLIC "-//W3C//DTD SVG 1.1//EN" "http://www.w3.org/Graphics/SVG/1.1/DTD/svg11.dtd">
<svg version="1.1" id="Layer_1" xmlns="http://www.w3.org/2000/svg" xmlns:xlink="http://www.w3.org/1999/xlink" x="0px" y="0px"
	 viewBox="0 0 514 186" enable-background="new 0 0 514 186" xml:space="preserve">
<g>
	<g>
		<path fill="#BE1E2D" d="M196.5,116.8c0,24.1-18.1,38.4-48.4,38.4c-12.6,0-25.3-4-34.3-10.8c-8.8,6.8-21,10.8-32.6,10.8
			c-11.7,0-23.5-3.6-32.4-9.9c-7.5-5.3-16.3-15-16.3-31.5V72.1c0-16.4,8.9-26.2,16.3-31.5c8.8-6.3,20.6-9.9,32.4-9.9
			c12.7,0,24.4,3.5,32.9,10c7.8-5.9,18.7-9.5,30.9-10c23.3,0,48.4,10.9,48.4,34.9c0,4.8-1.4,6.2-6.3,6.2h-17.4c-3.9,0-4.9-2.9-5.7-5
			l-0.2-0.6c-0.7-1.6-1.4-2.8-3.5-4.9c-3.2-3-9.5-4.4-14.3-4.4c-5,0-14.4,1.9-14.4,9.1c0,7.5,15.8,11.8,25.2,14.3
			c3,0.8,5.5,1.5,7.2,2.1l0.9,0.3C177.5,86.6,196.5,92.4,196.5,116.8z"/>
	</g>
	<g>
		<path fill="#BE1E2D" d="M164.9,82.8l-0.9-0.3c-1.6-0.7-4.2-1.3-7.2-2.1c-9.4-2.5-25.2-6.8-25.2-14.3c0-7.2,9.4-9.1,14.4-9.1
			c4.8,0,11.1,1.4,14.3,4.4c2,2.1,2.8,3.3,3.5,4.9l0.2,0.6c0.7,2.1,1.8,5,5.7,5h17.4c4.9,0,6.3-1.4,6.3-6.2c0-24-25-34.9-48.4-34.9
			c-12.2,0.5-23.1,4-30.9,10c-8.5-6.4-20.2-10-32.9-10c-11.7,0-23.5,3.6-32.4,9.9c-7.5,5.3-16.3,15-16.3,31.5v41.8
			c0,16.4,8.9,26.2,16.3,31.5c8.8,6.3,20.6,9.9,32.4,9.9c11.6,0,23.8-4,32.6-10.8c9,6.8,21.7,10.8,34.3,10.8
			c30.3,0,48.4-14.4,48.4-38.4C196.5,92.4,177.5,86.6,164.9,82.8z"/>
		<path fill="#BE1E2D" d="M470.3,7.1H43.7c-19.3,0-35,15.7-35,35V144c0,19.3,15.7,35,35,35h426.6c19.3,0,35-15.7,35-35V42
			C505.3,22.8,489.6,7.1,470.3,7.1z M148.1,155.2c-12.6,0-25.3-4-34.3-10.8c-8.8,6.8-21,10.8-32.6,10.8c-11.7,0-23.5-3.6-32.4-9.9
			c-7.5-5.3-16.3-15-16.3-31.5V72.1c0-16.4,8.9-26.2,16.3-31.5c8.8-6.3,20.6-9.9,32.4-9.9c12.7,0,24.4,3.5,32.9,10
			c7.8-5.9,18.7-9.5,30.9-10c23.3,0,48.4,10.9,48.4,34.9c0,4.8-1.4,6.2-6.3,6.2h-17.4c-3.9,0-4.9-2.9-5.7-5l-0.2-0.6
			c-0.7-1.6-1.4-2.8-3.5-4.9c-3.2-3-9.5-4.4-14.3-4.4c-5,0-14.4,1.9-14.4,9.1c0,7.5,15.8,11.8,25.2,14.3c3,0.8,5.5,1.5,7.2,2.1
			l0.9,0.3c12.5,3.8,31.5,9.6,31.5,34.1C196.5,140.9,178.4,155.2,148.1,155.2z M500.6,144c0,16.7-13.6,30.3-30.3,30.3H217.9V11.8
			h252.4c16.7,0,30.3,13.6,30.3,30.3V144z"/>
	</g>
	<g>
		<path fill="#BE1E2D" d="M254,80.2c-7.8,0-17.6-4.5-17.6-14.9V49.8c0-10.3,9.8-14.9,17.6-14.9c8.2,0,16.2,4.1,17.1,12.5
			c0,1.6-0.5,1.9-2,1.9h-6.3c-1.4,0-1.4-1.2-2-2c-1.4-2.2-3.2-3.2-6.8-3.2c-4.3,0-7.3,2.4-7.3,6.6v13.7c0,4.2,3,6.6,7.3,6.6
			c3.6,0,6.4-1.3,6.9-4.5c0.2-1.3,0.3-2.4,1.8-2.4h6.5c1.4,0,2,0.7,2,2.2C271.1,74.8,262.2,80.2,254,80.2z"/>
		<path fill="#BE1E2D" d="M315.5,79.2h-6.9c-1.4,0-2-0.4-2.5-2l-1.8-5.2h-16.1l-1.8,5.2c-0.5,1.6-1,2-2.5,2h-6.9
			c-1.4,0-1.4-1.1-1.1-1.8l14.6-39.4c0.5-1.4,1.2-2,2.7-2h6.3c1.4,0,2.1,0.7,2.7,2l14.5,39.4C316.9,78.1,316.9,79.2,315.5,79.2z
			 M301.1,62.8l-4.9-14.5l-4.9,14.5H301.1z"/>
		<path fill="#BE1E2D" d="M355.2,66.3c0,9.3-7.4,13.8-17.5,13.8c-8.2,0-17.7-4.7-17.7-13.9c0-1.5,0.4-1.8,1.9-1.8h6.4
			c1.5,0,2.2,0.2,2.4,1.8c0.1,0.9,0.4,1.7,1.3,2.7c1.3,1.6,4,2.2,6.4,2.2c3.6,0,6.4-0.8,6.4-4.5c0-3.7-5.8-3.7-11.4-5.5
			c-6.6-2.1-12.8-4.7-12.8-13.1c0-8.5,7.8-12.8,16-13.1c8.4,0,17.5,3.8,17.5,12.5c0,1.6-0.4,1.8-1.9,1.8h-6.5
			c-1.2,0-1.4-0.9-1.8-1.8c-0.3-0.7-0.6-1.2-1.4-2c-1.2-1.2-3.6-1.8-5.6-1.8c-2.2,0-5.8,0.9-5.8,3.8c0,4,9.7,5.5,12.3,6.5
			C348.2,55.5,355.2,57.4,355.2,66.3z"/>
		<path fill="#BE1E2D" d="M397.2,37.8v28.2c0,10.3-9.6,14.2-17.4,14.2c-7.8,0-17.4-3.9-17.4-14.2V37.8c0-1.5,0.7-1.9,1.9-1.9h6.5
			c1.2,0,1.9,0.4,1.9,1.9v26.7c0,4.1,2.7,6.5,7,6.5c4.3,0,7.1-2.4,7.1-6.5V37.8c0-1.5,0.7-1.9,1.9-1.9h6.5
			C396.4,35.9,397.2,36.3,397.2,37.8z"/>
		<path fill="#BE1E2D" d="M442.5,79.2h-6.9c-1.4,0-2-0.4-2.5-2l-1.8-5.2h-16.1l-1.8,5.2c-0.5,1.6-1,2-2.5,2h-6.9
			c-1.4,0-1.4-1.1-1.1-1.8l14.6-39.4c0.5-1.4,1.2-2,2.7-2h6.3c1.4,0,2.1,0.7,2.7,2l14.5,39.4C443.9,78.1,443.9,79.2,442.5,79.2z
			 M428.2,62.8l-4.9-14.5l-4.9,14.5H428.2z"/>
		<path fill="#BE1E2D" d="M480.6,71.9v5.4c0,1.2-0.4,1.9-1.9,1.9h-27.4c-1.5,0-1.9-0.7-1.9-1.9V37.8c0-1.5,0.7-1.9,1.9-1.9h6.5
			c1.2,0,1.9,0.4,1.9,1.9V70h18.9C480.3,70,480.6,70.7,480.6,71.9z"/>
		<path fill="#BE1E2D" d="M290,91.1v8.6c0,1.9-0.6,3-3,3H271v50.9c0,2.4-1.1,3-3,3h-10.3c-1.9,0-3-0.6-3-3v-50.9h-16
			c-2.4,0-3-1.1-3-3v-8.6c0-1.9,0.6-3,3-3H287C289.4,88,290,89.2,290,91.1z"/>
		<path fill="#BE1E2D" d="M353.1,145v8.5c0,1.9-0.6,3-3,3h-46.7c-2.4,0-3-1.1-3-3V91.1c0-1.9,0.6-3,3-3h44.9c2.4,0,3,1.1,3,3v8.6
			c0,1.9-0.6,3-3,3h-31.5v11.4h27.9c2.4,0,3,1.1,3,3v8.1c0,1.9-0.6,3-3,3h-27.9V142h33.2C352.5,142,353.1,143.2,353.1,145z"/>
		<path fill="#BE1E2D" d="M418.4,145v8.5c0,1.9-0.6,3-3,3h-46.7c-2.4,0-3-1.1-3-3V91.1c0-1.9,0.6-3,3-3h44.9c2.4,0,3,1.1,3,3v8.6
			c0,1.9-0.6,3-3,3h-31.5v11.4h27.9c2.4,0,3,1.1,3,3v8.1c0,1.9-0.6,3-3,3h-27.9V142h33.2C417.8,142,418.4,143.2,418.4,145z"/>
		<path fill="#BE1E2D" d="M482.9,136.3c0,14.8-11.7,21.9-27.7,21.9c-13,0-28-7.5-28-22.1c0-2.4,0.6-2.9,3-2.9h10.1
			c2.4,0,3.5,0.3,3.8,2.9c0.1,1.3,0.6,2.7,2,4.3c2.1,2.5,6.4,3.4,10.2,3.4c5.6,0,10.2-1.2,10.2-7.1c0-5.8-9.3-5.9-18.1-8.7
			c-10.5-3.3-20.2-7.5-20.2-20.7c0-13.5,12.3-20.2,25.3-20.7c13.2,0,27.7,6,27.7,19.8c0,2.5-0.6,2.9-3,2.9h-10.2
			c-2,0-2.3-1.5-2.8-2.8c-0.4-1-0.9-1.9-2.2-3.1c-2-1.9-5.7-2.8-8.9-2.8c-3.4,0-9.2,1.4-9.2,6.1c0,6.4,15.3,8.6,19.5,10.3
			C471.9,119.1,482.9,122.1,482.9,136.3z"/>
	</g>
	<g>
		<g>
			<path fill="#FFFFFF" d="M163.6,83.6c-7.1-2.8-33.1-6.7-33.1-17.6c0-7.9,9.8-10.3,15.6-10.3c5.3,0,11.8,1.6,15.1,4.8
				c2.1,2.1,3,3.5,3.7,5.3c0.8,2.3,1.4,4.9,4.8,4.9h17.4c4.1,0,5.1-0.7,5.1-5c0-23.3-24.6-33.7-47.2-33.7
				c-11.6,0.5-22.9,3.8-30.9,10.3c-8.8-6.9-20.8-10.3-33-10.3c-21.1,0-47.5,12.3-47.5,40.1v41.8c0,27.8,26.4,40.1,47.5,40.1
				c11.6,0,23.7-4,32.6-11.1c9.3,7.4,22.3,11.1,34.3,11.1c27.4,0,47.2-12.1,47.2-37.3C195.3,92.6,176.4,87.5,163.6,83.6z M122,110.7
				h-17.4c-3.9,0-4.3,2.8-4.9,6.3c-1.4,8.6-9.1,12-18.6,12c-11.8,0-19.7-6.3-19.7-17.6v-37c0-11.1,7.9-17.8,19.7-17.7
				c19.2,0.1,20.8,13.1,20.8,13.1c1.2,20.5,17.1,27.3,34.4,32.8c15,4.8,30.8,4.9,30.8,14.8c0,10-7.7,12-17.4,12
				c-6.5,0-13.8-1.6-17.4-5.8c-2.3-2.7-3.2-5-3.4-7.3C129.1,116.4,129.9,110.2,122,110.7z"/>
			<path fill="#BE1E2D" d="M148.3,104.5c-3.8-0.9-7.7-1.8-11.6-3c-17-5.4-32.4-11.9-33.6-31.8c0-0.1-2-14-22.1-14.1
				c-12.6,0-20.7,7.4-20.7,18.9v37c0,11.6,8,18.8,20.9,18.8c11.4,0,18.4-4.6,19.8-13.2c0.6-3.9,1-5.2,3.7-5.2h17.5
				c2.3-0.1,4,0.3,4.9,1.4c1.1,1.2,0.9,3,0.9,3.3c0.2,2.8,1.4,5.3,3.6,7.9c4.7,5.6,14.3,6.2,18.3,6.2c8.6,0,18.5-1.5,18.5-13.2
				C168.4,109.2,159.1,107.1,148.3,104.5z M149.8,128.3c-7.5,0-13.6-2-16.5-5.4c-1.9-2.2-2.9-4.3-3.1-6.4c0-0.1,0.3-2.8-1.5-4.8
				c-1.3-1.5-3.2-2.2-5.8-2.2c-0.3,0-0.6,0-0.9,0h-17.4c-4.8,0-5.4,3.6-6,7.3C97.1,126.5,87,128,81.2,128
				c-11.6,0-18.5-6.2-18.5-16.5v-37c0-10.2,7-16.6,18.5-16.6c17.9,0.1,19.6,11.6,19.7,12c1.3,21.3,18.1,28.4,35.2,33.8
				c4,1.2,7.9,2.2,11.8,3.1c10.2,2.4,18.3,4.3,18.3,10.7C166,125.2,161.3,128.3,149.8,128.3z M148.3,104.5c-3.8-0.9-7.7-1.8-11.6-3
				c-17-5.4-32.4-11.9-33.6-31.8c0-0.1-2-14-22.1-14.1c-12.6,0-20.7,7.4-20.7,18.9v37c0,11.6,8,18.8,20.9,18.8
				c11.4,0,18.4-4.6,19.8-13.2c0.6-3.9,1-5.2,3.7-5.2h17.5c2.3-0.1,4,0.3,4.9,1.4c1.1,1.2,0.9,3,0.9,3.3c0.2,2.8,1.4,5.3,3.6,7.9
				c4.7,5.6,14.3,6.2,18.3,6.2c8.6,0,18.5-1.5,18.5-13.2C168.4,109.2,159.1,107.1,148.3,104.5z M149.8,128.3c-7.5,0-13.6-2-16.5-5.4
				c-1.9-2.2-2.9-4.3-3.1-6.4c0-0.1,0.3-2.8-1.5-4.8c-1.3-1.5-3.2-2.2-5.8-2.2c-0.3,0-0.6,0-0.9,0h-17.4c-4.8,0-5.4,3.6-6,7.3
				C97.1,126.5,87,128,81.2,128c-11.6,0-18.5-6.2-18.5-16.5v-37c0-10.2,7-16.6,18.5-16.6c17.9,0.1,19.6,11.6,19.7,12
				c1.3,21.3,18.1,28.4,35.2,33.8c4,1.2,7.9,2.2,11.8,3.1c10.2,2.4,18.3,4.3,18.3,10.7C166,125.2,161.3,128.3,149.8,128.3z
				 M164.9,82.8l-0.9-0.3c-1.6-0.7-4.2-1.3-7.2-2.1c-9.4-2.5-25.2-6.8-25.2-14.3c0-7.2,9.4-9.1,14.4-9.1c4.8,0,11.1,1.4,14.3,4.4
				c2,2.1,2.8,3.3,3.5,4.9l0.2,0.6c0.7,2.1,1.8,5,5.7,5h17.4c4.9,0,6.3-1.4,6.3-6.2c0-24-25-34.9-48.4-34.9
				c-12.2,0.5-23.1,4-30.9,10c-8.5-6.4-20.2-10-32.9-10c-11.7,0-23.5,3.6-32.4,9.9c-7.5,5.3-16.3,15-16.3,31.5v41.8
				c0,16.4,8.9,26.2,16.3,31.5c8.8,6.3,20.6,9.9,32.4,9.9c11.6,0,23.8-4,32.6-10.8c9,6.8,21.7,10.8,34.3,10.8
				c30.3,0,48.4-14.4,48.4-38.4C196.5,92.4,177.5,86.6,164.9,82.8z M148.1,152.9c-12.4,0-24.9-4.1-33.5-10.9l-0.7-0.6l-0.7,0.6
				c-8.5,6.8-20.4,10.9-31.8,10.9c-34,0-46.4-23.3-46.4-39V72.1c0-15.7,12.3-39,46.4-39c12.6,0,24,3.6,32.2,10l0.7,0.6l0.7-0.6
				c7.5-6,18.2-9.5,30.2-10c22.2,0,46,10.2,46,32.6c0,3.6-0.5,3.9-4,3.9h-17.4c-2.1,0-2.7-1.2-3.5-3.5l-0.2-0.7
				c-0.8-1.8-1.7-3.4-4-5.7c-4-3.7-11.1-5.1-15.9-5.1c-5.8,0-16.8,2.4-16.8,11.4c0,9.3,16.2,13.7,27,16.6c2.9,0.8,5.4,1.4,7,2.1
				l1,0.3c12.6,3.9,29.9,9.1,29.9,31.8C194.1,139.4,176.9,152.9,148.1,152.9z M148.3,104.5c-3.8-0.9-7.7-1.8-11.6-3
				c-17-5.4-32.4-11.9-33.6-31.8c0-0.1-2-14-22.1-14.1c-12.6,0-20.7,7.4-20.7,18.9v37c0,11.6,8,18.8,20.9,18.8
				c11.4,0,18.4-4.6,19.8-13.2c0.6-3.9,1-5.2,3.7-5.2h17.5c2.3-0.1,4,0.3,4.9,1.4c1.1,1.2,0.9,3,0.9,3.3c0.2,2.8,1.4,5.3,3.6,7.9
				c4.7,5.6,14.3,6.2,18.3,6.2c8.6,0,18.5-1.5,18.5-13.2C168.4,109.2,159.1,107.1,148.3,104.5z M149.8,128.3c-7.5,0-13.6-2-16.5-5.4
				c-1.9-2.2-2.9-4.3-3.1-6.4c0-0.1,0.3-2.8-1.5-4.8c-1.3-1.5-3.2-2.2-5.8-2.2c-0.3,0-0.6,0-0.9,0h-17.4c-4.8,0-5.4,3.6-6,7.3
				C97.1,126.5,87,128,81.2,128c-11.6,0-18.5-6.2-18.5-16.5v-37c0-10.2,7-16.6,18.5-16.6c17.9,0.1,19.6,11.6,19.7,12
				c1.3,21.3,18.1,28.4,35.2,33.8c4,1.2,7.9,2.2,11.8,3.1c10.2,2.4,18.3,4.3,18.3,10.7C166,125.2,161.3,128.3,149.8,128.3z"/>
		</g>
	</g>
</g>
</svg>
