<svg xmlns="http://www.w3.org/2000/svg" viewBox="0 0 514 186" enable-background="new 0 0 514 186"><path fill="#BE1E2D" d="M196.5 116.8c0 24.1-18.1 38.4-48.4 38.4-12.6 0-25.3-4-34.3-10.8-8.8 6.8-21 10.8-32.6 10.8-11.7 0-23.5-3.6-32.4-9.9-7.5-5.3-16.3-15-16.3-31.5v-41.7c0-16.4 8.9-26.2 16.3-31.5 8.8-6.3 20.6-9.9 32.4-9.9 12.7 0 24.4 3.5 32.9 10 7.8-5.9 18.7-9.5 30.9-10 23.3 0 48.4 10.9 48.4 34.9 0 4.8-1.4 6.2-6.3 6.2h-17.4c-3.9 0-4.9-2.9-5.7-5l-.2-.6c-.7-1.6-1.4-2.8-3.5-4.9-3.2-3-9.5-4.4-14.3-4.4-5 0-14.4 1.9-14.4 9.1 0 7.5 15.8 11.8 25.2 14.3 3 .8 5.5 1.5 7.2 2.1l.9.3c12.6 3.9 31.6 9.7 31.6 34.1z"/><g fill="#BE1E2D"><path d="M164.9 82.8l-.9-.3c-1.6-.7-4.2-1.3-7.2-2.1-9.4-2.5-25.2-6.8-25.2-14.3 0-7.2 9.4-9.1 14.4-9.1 4.8 0 11.1 1.4 14.3 4.4 2 2.1 2.8 3.3 3.5 4.9l.2.6c.7 2.1 1.8 5 5.7 5h17.4c4.9 0 6.3-1.4 6.3-6.2 0-24-25-34.9-48.4-34.9-12.2.5-23.1 4-30.9 10-8.5-6.4-20.2-10-32.9-10-11.7 0-23.5 3.6-32.4 9.9-7.5 5.3-16.3 15-16.3 31.5v41.8c0 16.4 8.9 26.2 16.3 31.5 8.8 6.3 20.6 9.9 32.4 9.9 11.6 0 23.8-4 32.6-10.8 9 6.8 21.7 10.8 34.3 10.8 30.3 0 48.4-14.4 48.4-38.4 0-24.6-19-30.4-31.6-34.2zM470.3 7.1h-426.6c-19.3 0-35 15.7-35 35v101.9c0 19.3 15.7 35 35 35h426.6c19.3 0 35-15.7 35-35v-102c0-19.2-15.7-34.9-35-34.9zm-322.2 148.1c-12.6 0-25.3-4-34.3-10.8-8.8 6.8-21 10.8-32.6 10.8-11.7 0-23.5-3.6-32.4-9.9-7.5-5.3-16.3-15-16.3-31.5v-41.7c0-16.4 8.9-26.2 16.3-31.5 8.8-6.3 20.6-9.9 32.4-9.9 12.7 0 24.4 3.5 32.9 10 7.8-5.9 18.7-9.5 30.9-10 23.3 0 48.4 10.9 48.4 34.9 0 4.8-1.4 6.2-6.3 6.2h-17.4c-3.9 0-4.9-2.9-5.7-5l-.2-.6c-.7-1.6-1.4-2.8-3.5-4.9-3.2-3-9.5-4.4-14.3-4.4-5 0-14.4 1.9-14.4 9.1 0 7.5 15.8 11.8 25.2 14.3 3 .8 5.5 1.5 7.2 2.1l.9.3c12.5 3.8 31.5 9.6 31.5 34.1.1 24.1-18 38.4-48.3 38.4zm352.5-11.2c0 16.7-13.6 30.3-30.3 30.3h-252.4v-162.5h252.4c16.7 0 30.3 13.6 30.3 30.3v101.9z"/></g><g fill="#BE1E2D"><path d="M254 80.2c-7.8 0-17.6-4.5-17.6-14.9v-15.5c0-10.3 9.8-14.9 17.6-14.9 8.2 0 16.2 4.1 17.1 12.5 0 1.6-.5 1.9-2 1.9h-6.3c-1.4 0-1.4-1.2-2-2-1.4-2.2-3.2-3.2-6.8-3.2-4.3 0-7.3 2.4-7.3 6.6v13.7c0 4.2 3 6.6 7.3 6.6 3.6 0 6.4-1.3 6.9-4.5.2-1.3.3-2.4 1.8-2.4h6.5c1.4 0 2 .7 2 2.2-.1 8.5-9 13.9-17.2 13.9zM315.5 79.2h-6.9c-1.4 0-2-.4-2.5-2l-1.8-5.2h-16.1l-1.8 5.2c-.5 1.6-1 2-2.5 2h-6.9c-1.4 0-1.4-1.1-1.1-1.8l14.6-39.4c.5-1.4 1.2-2 2.7-2h6.3c1.4 0 2.1.7 2.7 2l14.5 39.4c.2.7.2 1.8-1.2 1.8zm-14.4-16.4l-4.9-14.5-4.9 14.5h9.8zM355.2 66.3c0 9.3-7.4 13.8-17.5 13.8-8.2 0-17.7-4.7-17.7-13.9 0-1.5.4-1.8 1.9-1.8h6.4c1.5 0 2.2.2 2.4 1.8.1.9.4 1.7 1.3 2.7 1.3 1.6 4 2.2 6.4 2.2 3.6 0 6.4-.8 6.4-4.5s-5.8-3.7-11.4-5.5c-6.6-2.1-12.8-4.7-12.8-13.1 0-8.5 7.8-12.8 16-13.1 8.4 0 17.5 3.8 17.5 12.5 0 1.6-.4 1.8-1.9 1.8h-6.5c-1.2 0-1.4-.9-1.8-1.8-.3-.7-.6-1.2-1.4-2-1.2-1.2-3.6-1.8-5.6-1.8-2.2 0-5.8.9-5.8 3.8 0 4 9.7 5.5 12.3 6.5 4.8 1.6 11.8 3.5 11.8 12.4zM397.2 37.8v28.2c0 10.3-9.6 14.2-17.4 14.2-7.8 0-17.4-3.9-17.4-14.2v-28.2c0-1.5.7-1.9 1.9-1.9h6.5c1.2 0 1.9.4 1.9 1.9v26.7c0 4.1 2.7 6.5 7 6.5s7.1-2.4 7.1-6.5v-26.7c0-1.5.7-1.9 1.9-1.9h6.5c1.2 0 2 .4 2 1.9zM442.5 79.2h-6.9c-1.4 0-2-.4-2.5-2l-1.8-5.2h-16.1l-1.8 5.2c-.5 1.6-1 2-2.5 2h-6.9c-1.4 0-1.4-1.1-1.1-1.8l14.6-39.4c.5-1.4 1.2-2 2.7-2h6.3c1.4 0 2.1.7 2.7 2l14.5 39.4c.2.7.2 1.8-1.2 1.8zm-14.3-16.4l-4.9-14.5-4.9 14.5h9.8zM480.6 71.9v5.4c0 1.2-.4 1.9-1.9 1.9h-27.4c-1.5 0-1.9-.7-1.9-1.9v-39.5c0-1.5.7-1.9 1.9-1.9h6.5c1.2 0 1.9.4 1.9 1.9v32.2h18.9c1.7 0 2 .7 2 1.9zM290 91.1v8.6c0 1.9-.6 3-3 3h-16v50.9c0 2.4-1.1 3-3 3h-10.3c-1.9 0-3-.6-3-3v-50.9h-16c-2.4 0-3-1.1-3-3v-8.6c0-1.9.6-3 3-3h48.3c2.4-.1 3 1.1 3 3zM353.1 145v8.5c0 1.9-.6 3-3 3h-46.7c-2.4 0-3-1.1-3-3v-62.4c0-1.9.6-3 3-3h44.9c2.4 0 3 1.1 3 3v8.6c0 1.9-.6 3-3 3h-31.5v11.4h27.9c2.4 0 3 1.1 3 3v8.1c0 1.9-.6 3-3 3h-27.9v13.8h33.2c2.5 0 3.1 1.2 3.1 3zM418.4 145v8.5c0 1.9-.6 3-3 3h-46.7c-2.4 0-3-1.1-3-3v-62.4c0-1.9.6-3 3-3h44.9c2.4 0 3 1.1 3 3v8.6c0 1.9-.6 3-3 3h-31.5v11.4h27.9c2.4 0 3 1.1 3 3v8.1c0 1.9-.6 3-3 3h-27.9v13.8h33.2c2.5 0 3.1 1.2 3.1 3zM482.9 136.3c0 14.8-11.7 21.9-27.7 21.9-13 0-28-7.5-28-22.1 0-2.4.6-2.9 3-2.9h10.1c2.4 0 3.5.3 3.8 2.9.1 1.3.6 2.7 2 4.3 2.1 2.5 6.4 3.4 10.2 3.4 5.6 0 10.2-1.2 10.2-7.1 0-5.8-9.3-5.9-18.1-8.7-10.5-3.3-20.2-7.5-20.2-20.7 0-13.5 12.3-20.2 25.3-20.7 13.2 0 27.7 6 27.7 19.8 0 2.5-.6 2.9-3 2.9h-10.2c-2 0-2.3-1.5-2.8-2.8-.4-1-.9-1.9-2.2-3.1-2-1.9-5.7-2.8-8.9-2.8-3.4 0-9.2 1.4-9.2 6.1 0 6.4 15.3 8.6 19.5 10.3 7.5 2.1 18.5 5.1 18.5 19.3z"/></g><path fill="#fff" d="M163.6 83.6c-7.1-2.8-33.1-6.7-33.1-17.6 0-7.9 9.8-10.3 15.6-10.3 5.3 0 11.8 1.6 15.1 4.8 2.1 2.1 3 3.5 3.7 5.3.8 2.3 1.4 4.9 4.8 4.9h17.4c4.1 0 5.1-.7 5.1-5 0-23.3-24.6-33.7-47.2-33.7-11.6.5-22.9 3.8-30.9 10.3-8.8-6.9-20.8-10.3-33-10.3-21.1 0-47.5 12.3-47.5 40.1v41.8c0 27.8 26.4 40.1 47.5 40.1 11.6 0 23.7-4 32.6-11.1 9.3 7.4 22.3 11.1 34.3 11.1 27.4 0 47.2-12.1 47.2-37.3.1-24.1-18.8-29.2-31.6-33.1zm-41.6 27.1h-17.4c-3.9 0-4.3 2.8-4.9 6.3-1.4 8.6-9.1 12-18.6 12-11.8 0-19.7-6.3-19.7-17.6v-37c0-11.1 7.9-17.8 19.7-17.7 19.2.1 20.8 13.1 20.8 13.1 1.2 20.5 17.1 27.3 34.4 32.8 15 4.8 30.8 4.9 30.8 14.8 0 10-7.7 12-17.4 12-6.5 0-13.8-1.6-17.4-5.8-2.3-2.7-3.2-5-3.4-7.3.2.1 1-6.1-6.9-5.6z"/><path fill="#BE1E2D" d="M148.3 104.5c-3.8-.9-7.7-1.8-11.6-3-17-5.4-32.4-11.9-33.6-31.8 0-.1-2-14-22.1-14.1-12.6 0-20.7 7.4-20.7 18.9v37c0 11.6 8 18.8 20.9 18.8 11.4 0 18.4-4.6 19.8-13.2.6-3.9 1-5.2 3.7-5.2h17.5c2.3-.1 4 .3 4.9 1.4 1.1 1.2.9 3 .9 3.3.2 2.8 1.4 5.3 3.6 7.9 4.7 5.6 14.3 6.2 18.3 6.2 8.6 0 18.5-1.5 18.5-13.2 0-8.3-9.3-10.4-20.1-13zm1.5 23.8c-7.5 0-13.6-2-16.5-5.4-1.9-2.2-2.9-4.3-3.1-6.4 0-.1.3-2.8-1.5-4.8-1.3-1.5-3.2-2.2-5.8-2.2h-18.299999999999997c-4.8 0-5.4 3.6-6 7.3-1.5 9.7-11.6 11.2-17.4 11.2-11.6 0-18.5-6.2-18.5-16.5v-37c0-10.2 7-16.6 18.5-16.6 17.9.1 19.6 11.6 19.7 12 1.3 21.3 18.1 28.4 35.2 33.8 4 1.2 7.9 2.2 11.8 3.1 10.2 2.4 18.3 4.3 18.3 10.7-.2 7.7-4.9 10.8-16.4 10.8zm-1.5-23.8c-3.8-.9-7.7-1.8-11.6-3-17-5.4-32.4-11.9-33.6-31.8 0-.1-2-14-22.1-14.1-12.6 0-20.7 7.4-20.7 18.9v37c0 11.6 8 18.8 20.9 18.8 11.4 0 18.4-4.6 19.8-13.2.6-3.9 1-5.2 3.7-5.2h17.5c2.3-.1 4 .3 4.9 1.4 1.1 1.2.9 3 .9 3.3.2 2.8 1.4 5.3 3.6 7.9 4.7 5.6 14.3 6.2 18.3 6.2 8.6 0 18.5-1.5 18.5-13.2 0-8.3-9.3-10.4-20.1-13zm1.5 23.8c-7.5 0-13.6-2-16.5-5.4-1.9-2.2-2.9-4.3-3.1-6.4 0-.1.3-2.8-1.5-4.8-1.3-1.5-3.2-2.2-5.8-2.2h-18.299999999999997c-4.8 0-5.4 3.6-6 7.3-1.5 9.7-11.6 11.2-17.4 11.2-11.6 0-18.5-6.2-18.5-16.5v-37c0-10.2 7-16.6 18.5-16.6 17.9.1 19.6 11.6 19.7 12 1.3 21.3 18.1 28.4 35.2 33.8 4 1.2 7.9 2.2 11.8 3.1 10.2 2.4 18.3 4.3 18.3 10.7-.2 7.7-4.9 10.8-16.4 10.8zm15.1-45.5l-.9-.3c-1.6-.7-4.2-1.3-7.2-2.1-9.4-2.5-25.2-6.8-25.2-14.3 0-7.2 9.4-9.1 14.4-9.1 4.8 0 11.1 1.4 14.3 4.4 2 2.1 2.8 3.3 3.5 4.9l.2.6c.7 2.1 1.8 5 5.7 5h17.4c4.9 0 6.3-1.4 6.3-6.2 0-24-25-34.9-48.4-34.9-12.2.5-23.1 4-30.9 10-8.5-6.4-20.2-10-32.9-10-11.7 0-23.5 3.6-32.4 9.9-7.5 5.3-16.3 15-16.3 31.5v41.8c0 16.4 8.9 26.2 16.3 31.5 8.8 6.3 20.6 9.9 32.4 9.9 11.6 0 23.8-4 32.6-10.8 9 6.8 21.7 10.8 34.3 10.8 30.3 0 48.4-14.4 48.4-38.4 0-24.6-19-30.4-31.6-34.2zm-16.8 70.1c-12.4 0-24.9-4.1-33.5-10.9l-.7-.6-.7.6c-8.5 6.8-20.4 10.9-31.8 10.9-34 0-46.4-23.3-46.4-39v-41.8c0-15.7 12.3-39 46.4-39 12.6 0 24 3.6 32.2 10l.7.6.7-.6c7.5-6 18.2-9.5 30.2-10 22.2 0 46 10.2 46 32.6 0 3.6-.5 3.9-4 3.9h-17.4c-2.1 0-2.7-1.2-3.5-3.5l-.2-.7c-.8-1.8-1.7-3.4-4-5.7-4-3.7-11.1-5.1-15.9-5.1-5.8 0-16.8 2.4-16.8 11.4 0 9.3 16.2 13.7 27 16.6 2.9.8 5.4 1.4 7 2.1l1 .3c12.6 3.9 29.9 9.1 29.9 31.8-.2 22.6-17.4 36.1-46.2 36.1zm.2-48.4c-3.8-.9-7.7-1.8-11.6-3-17-5.4-32.4-11.9-33.6-31.8 0-.1-2-14-22.1-14.1-12.6 0-20.7 7.4-20.7 18.9v37c0 11.6 8 18.8 20.9 18.8 11.4 0 18.4-4.6 19.8-13.2.6-3.9 1-5.2 3.7-5.2h17.5c2.3-.1 4 .3 4.9 1.4 1.1 1.2.9 3 .9 3.3.2 2.8 1.4 5.3 3.6 7.9 4.7 5.6 14.3 6.2 18.3 6.2 8.6 0 18.5-1.5 18.5-13.2 0-8.3-9.3-10.4-20.1-13zm1.5 23.8c-7.5 0-13.6-2-16.5-5.4-1.9-2.2-2.9-4.3-3.1-6.4 0-.1.3-2.8-1.5-4.8-1.3-1.5-3.2-2.2-5.8-2.2h-18.299999999999997c-4.8 0-5.4 3.6-6 7.3-1.5 9.7-11.6 11.2-17.4 11.2-11.6 0-18.5-6.2-18.5-16.5v-37c0-10.2 7-16.6 18.5-16.6 17.9.1 19.6 11.6 19.7 12 1.3 21.3 18.1 28.4 35.2 33.8 4 1.2 7.9 2.2 11.8 3.1 10.2 2.4 18.3 4.3 18.3 10.7-.2 7.7-4.9 10.8-16.4 10.8z"/></svg>