<svg xmlns="http://www.w3.org/2000/svg" viewBox="0 0 612 792" enable-background="new 0 0 612 792"><path fill="#fff" d="M535.7 561.2l-102-102.1c19.7-31.2 31.2-68.1 31.2-107.7 0-111.2-90.5-201.5-201.5-201.5-111.2 0-201.5 90.5-201.5 201.5s90.5 201.5 201.5 201.5c37.7 0 72.8-10.4 103-28.3l102.9 102.9c44 44.1 110.4-22.3 66.4-66.3zm-411.4-209.7c0-76.7 62.4-139.1 139-139.1s139.1 62.4 139.1 139.1-62.4 139.1-139.1 139.1-139-62.4-139-139.1zm41.3-36.2c40.8-94.3 177.7-83.4 203.4 15.4-52-61-143.4-67.6-203.4-15.4z"/></svg>