<?xml version="1.0" encoding="utf-8"?>
<!-- Generator: Adobe Illustrator 17.1.0, SVG Export Plug-In . SVG Version: 6.00 Build 0)  -->
<!DOCTYPE svg PUBLIC "-//W3C//DTD SVG 1.1//EN" "http://www.w3.org/Graphics/SVG/1.1/DTD/svg11.dtd">
<svg version="1.1" id="Layer_1" xmlns="http://www.w3.org/2000/svg" xmlns:xlink="http://www.w3.org/1999/xlink" x="0px" y="0px"
	 viewBox="0 0 612 792" enable-background="new 0 0 612 792" xml:space="preserve">
<path id="magnifier-4-icon" fill="#FFFFFF" d="M535.7,561.2L433.7,459.1c19.7-31.2,31.2-68.1,31.2-107.7
	c0-111.2-90.5-201.5-201.5-201.5c-111.2,0-201.5,90.5-201.5,201.5s90.5,201.5,201.5,201.5c37.7,0,72.8-10.4,103-28.3l102.9,102.9
	C513.3,671.6,579.7,605.2,535.7,561.2z M124.3,351.5c0-76.7,62.4-139.1,139-139.1s139.1,62.4,139.1,139.1s-62.4,139.1-139.1,139.1
	S124.3,428.2,124.3,351.5z M165.6,315.3c40.8-94.3,177.7-83.4,203.4,15.4C317,269.7,225.6,263.1,165.6,315.3z"/>
</svg>
